<svg xmlns="http://www.w3.org/2000/svg" viewBox="0 0 400 240" role="img" aria-label="Accurate">
  <defs>
    <linearGradient id="acc-ice" x1="0%" y1="0%" x2="100%" y2="100%">
      <stop offset="0%" stop-color="#c8e4f0"/>
      <stop offset="100%" stop-color="#7eb8d4"/>
    </linearGradient>
    <linearGradient id="acc-glow" x1="50%" y1="0%" x2="50%" y2="100%">
      <stop offset="0%" stop-color="#9ec4d9" stop-opacity="0.35"/>
      <stop offset="100%" stop-color="#9ec4d9" stop-opacity="0"/>
    </linearGradient>
    <filter id="acc-blur" x="-20%" y="-20%" width="140%" height="140%">
      <feGaussianBlur stdDeviation="8"/>
    </filter>
  </defs>
  <rect width="400" height="240" fill="#0a0c10"/>
  <circle cx="320" cy="48" r="64" fill="url(#acc-glow)" filter="url(#acc-blur)"/>
  <circle cx="72" cy="196" r="48" fill="url(#acc-glow)" filter="url(#acc-blur)"/>
  <g fill="none" stroke="#9ec4d9" stroke-opacity="0.15" stroke-width="1">
    <path d="M0 60h400M0 120h400M0 180h400"/>
    <path d="M80 0v240M160 0v240M240 0v240M320 0v240"/>
  </g>
  <rect x="88" y="52" width="224" height="136" rx="12" stroke="url(#acc-ice)" stroke-width="1.5" fill="#0f1218" fill-opacity="0.8"/>
  <path d="M200 76 L248 164 H224 L214 144 H186 L176 164 H152 Z M200 88 L192 124 H208 Z" fill="url(#acc-ice)"/>
  <rect x="108" y="168" width="48" height="4" rx="2" fill="#5a7a8c" opacity="0.8"/>
  <rect x="164" y="168" width="72" height="4" rx="2" fill="#5a7a8c" opacity="0.5"/>
  <circle cx="288" cy="88" r="5" fill="#7eb8d4"/>
  <circle cx="304" cy="104" r="3" fill="#5a7a8c" opacity="0.7"/>
  <path d="M264 148 L288 124 L312 148" stroke="url(#acc-ice)" stroke-width="2" stroke-linecap="round" stroke-linejoin="round"/>
</svg>
