<svg xmlns="http://www.w3.org/2000/svg" viewBox="0 0 800 480" role="img" aria-label="CSB Virtual e-sports">
  <defs>
    <linearGradient id="bg2" x1="0%" y1="0%" x2="100%" y2="100%">
      <stop offset="0%" stop-color="#eef2ff"/>
      <stop offset="100%" stop-color="#e0e7ff"/>
    </linearGradient>
    <linearGradient id="accent2" x1="0%" y1="0%" x2="100%" y2="0%">
      <stop offset="0%" stop-color="#6366f1"/>
      <stop offset="100%" stop-color="#4f46e5"/>
    </linearGradient>
    <linearGradient id="field" x1="0%" y1="0%" x2="0%" y2="100%">
      <stop offset="0%" stop-color="#22c55e"/>
      <stop offset="100%" stop-color="#16a34a"/>
    </linearGradient>
  </defs>
  <rect width="800" height="480" fill="url(#bg2)"/>
  <circle cx="700" cy="100" r="100" fill="#6366f1" opacity="0.1"/>
  <circle cx="100" cy="380" r="80" fill="#6366f1" opacity="0.08"/>
  <rect x="60" y="70" width="420" height="260" rx="20" fill="#1e1b4b" opacity="0.92"/>
  <rect x="80" y="90" width="380" height="220" rx="12" fill="url(#field)" opacity="0.85"/>
  <ellipse cx="270" cy="200" rx="60" ry="40" fill="none" stroke="#fff" stroke-width="3" opacity="0.6"/>
  <line x1="270" y1="90" x2="270" y2="310" stroke="#fff" stroke-width="2" opacity="0.5"/>
  <circle cx="150" cy="160" r="14" fill="#fbbf24"/>
  <circle cx="390" cy="240" r="14" fill="#f87171"/>
  <rect x="500" y="120" width="240" height="160" rx="16" fill="#fff" stroke="#c7d2fe" stroke-width="2"/>
  <rect x="520" y="145" width="80" height="12" rx="6" fill="url(#accent2)" opacity="0.8"/>
  <rect x="520" y="170" width="180" height="8" rx="4" fill="#c7d2fe"/>
  <rect x="520" y="190" width="150" height="8" rx="4" fill="#c7d2fe"/>
  <rect x="520" y="230" width="100" height="28" rx="8" fill="url(#accent2)"/>
  <text x="535" y="250" font-family="system-ui, sans-serif" font-size="13" font-weight="700" fill="#fff">LIVE</text>
  <rect x="500" y="310" width="110" height="90" rx="12" fill="#fff" stroke="#c7d2fe" stroke-width="2"/>
  <path d="M530 370 L555 340 L580 355 L610 320" fill="none" stroke="#6366f1" stroke-width="3" stroke-linecap="round"/>
  <rect x="630" y="310" width="110" height="90" rx="12" fill="#fff" stroke="#c7d2fe" stroke-width="2"/>
  <circle cx="685" cy="355" r="22" fill="none" stroke="#6366f1" stroke-width="5"/>
  <polygon points="678,345 678,365 695,355" fill="#6366f1"/>
  <text x="60" y="400" font-family="system-ui, sans-serif" font-size="26" font-weight="700" fill="#312e81">csbvirtual.blogspot.com</text>
  <text x="60" y="430" font-family="system-ui, sans-serif" font-size="16" fill="#4338ca">E-sports tournaments &amp; virtual football leagues</text>
</svg>
