<svg xmlns="http://www.w3.org/2000/svg" viewBox="0 0 400 240" role="img" aria-label="CSB Virtual">
  <defs>
    <linearGradient id="csb-ice" x1="0%" y1="0%" x2="100%" y2="100%">
      <stop offset="0%" stop-color="#c8e4f0"/>
      <stop offset="100%" stop-color="#7eb8d4"/>
    </linearGradient>
    <linearGradient id="csb-field" x1="0%" y1="0%" x2="0%" y2="100%">
      <stop offset="0%" stop-color="#3d6b5a"/>
      <stop offset="100%" stop-color="#2a4a3d"/>
    </linearGradient>
    <linearGradient id="csb-glow" x1="50%" y1="100%" x2="50%" y2="0%">
      <stop offset="0%" stop-color="#7eb8d4" stop-opacity="0.25"/>
      <stop offset="100%" stop-color="#7eb8d4" stop-opacity="0"/>
    </linearGradient>
    <filter id="csb-blur" x="-20%" y="-20%" width="140%" height="140%">
      <feGaussianBlur stdDeviation="10"/>
    </filter>
  </defs>
  <rect width="400" height="240" fill="#0a0c10"/>
  <ellipse cx="200" cy="200" rx="120" ry="24" fill="url(#csb-glow)" filter="url(#csb-blur)"/>
  <rect x="72" y="56" width="256" height="144" rx="14" fill="#0f1218" stroke="url(#csb-ice)" stroke-width="1.5" stroke-opacity="0.6"/>
  <rect x="88" y="72" width="224" height="112" rx="8" fill="url(#csb-field)" opacity="0.85"/>
  <ellipse cx="200" cy="128" rx="36" ry="24" fill="none" stroke="#c8e4f0" stroke-width="1.5" stroke-opacity="0.5"/>
  <line x1="200" y1="72" x2="200" y2="184" stroke="#c8e4f0" stroke-width="1" stroke-opacity="0.35"/>
  <circle cx="128" cy="108" r="10" fill="#7eb8d4" opacity="0.9"/>
  <circle cx="272" cy="148" r="10" fill="#9ec4d9" opacity="0.75"/>
  <g transform="translate(292, 68)">
    <rect x="0" y="16" width="56" height="36" rx="8" fill="#131820" stroke="url(#csb-ice)" stroke-width="1.2"/>
    <path d="M12 36 L12 28 C12 24 16 22 20 22 H36 C40 22 44 24 44 28 V36" stroke="#7eb8d4" stroke-width="2" fill="none" stroke-linecap="round"/>
    <circle cx="20" cy="30" r="3" fill="#c8e4f0"/>
    <circle cx="36" cy="30" r="3" fill="#c8e4f0"/>
    <rect x="22" y="8" width="12" height="10" rx="3" fill="#5a7a8c"/>
  </g>
  <rect x="88" y="196" width="56" height="16" rx="4" fill="#7eb8d4" opacity="0.85"/>
  <text x="96" y="208" font-family="system-ui, sans-serif" font-size="9" font-weight="700" fill="#0a0c10" letter-spacing="0.08em">LIVE</text>
</svg>
